<svg width="256" height="256" viewBox="0 0 256 256" fill="none" xmlns="http://www.w3.org/2000/svg">
<path d="M128 20C106.64 20 85.7589 26.3341 67.9984 38.2013C50.2379 50.0685 36.3953 66.9358 28.221 86.6702C20.0467 106.405 17.908 128.12 22.0752 149.07C26.2424 170.02 36.5284 189.263 51.6325 204.368C66.7365 219.472 85.9803 229.758 106.93 233.925C127.88 238.092 149.595 235.953 169.33 227.779C189.064 219.605 205.932 205.762 217.799 188.002C229.666 170.241 236 149.36 236 128C235.974 99.3647 224.586 71.9099 204.338 51.6617C184.09 31.4135 156.635 20.0265 128 20ZM128 212C111.386 212 95.1458 207.073 81.3321 197.843C67.5184 188.613 56.7519 175.494 50.3941 160.145C44.0363 144.796 42.3729 127.907 45.614 111.612C48.8552 95.318 56.8554 80.3506 68.603 68.603C80.3506 56.8554 95.318 48.8552 111.612 45.614C127.907 42.3729 144.796 44.0364 160.145 50.3941C175.494 56.7519 188.613 67.5184 197.843 81.3321C207.073 95.1458 212 111.386 212 128C211.974 150.27 203.115 171.62 187.368 187.368C171.62 203.115 150.27 211.974 128 212ZM144 84V176C144 179.183 142.736 182.235 140.485 184.485C138.235 186.736 135.183 188 132 188C128.817 188 125.765 186.736 123.515 184.485C121.264 182.235 120 179.183 120 176V106.4L114.7 110C113.387 110.88 111.913 111.492 110.363 111.803C108.813 112.113 107.217 112.115 105.667 111.809C102.535 111.19 99.7769 109.352 98 106.7C96.223 104.048 95.5724 100.798 96.1913 97.6665C96.8102 94.5347 98.6478 91.777 101.3 90L125.3 74C127.124 72.7994 129.237 72.1104 131.418 72.0048C133.599 71.8993 135.769 72.3811 137.7 73.4C139.611 74.4315 141.206 75.9622 142.316 77.8289C143.425 79.6956 144.007 81.8285 144 84Z" fill="#9747FF"/>
</svg>
