<svg width="256" height="256" viewBox="0 0 256 256" fill="none" xmlns="http://www.w3.org/2000/svg">
<path d="M128 20C106.64 20 85.7589 26.3341 67.9984 38.2013C50.2379 50.0685 36.3953 66.9358 28.221 86.6702C20.0467 106.405 17.908 128.12 22.0752 149.07C26.2424 170.02 36.5284 189.263 51.6325 204.368C66.7365 219.472 85.9803 229.758 106.93 233.925C127.88 238.092 149.595 235.953 169.33 227.779C189.064 219.605 205.932 205.762 217.799 188.002C229.666 170.241 236 149.36 236 128C235.974 99.3647 224.586 71.9099 204.338 51.6617C184.09 31.4135 156.635 20.0265 128 20ZM128 212C111.386 212 95.1458 207.073 81.3321 197.843C67.5184 188.613 56.7519 175.494 50.3941 160.145C44.0364 144.796 42.3729 127.907 45.614 111.612C48.8552 95.318 56.8554 80.3506 68.603 68.603C80.3506 56.8554 95.318 48.8552 111.612 45.614C127.907 42.3729 144.796 44.0364 160.145 50.3941C175.494 56.7519 188.613 67.5184 197.843 81.3321C207.073 95.1458 212 111.386 212 128C211.974 150.27 203.115 171.62 187.368 187.368C171.62 203.115 150.27 211.974 128 212ZM157.5 124.6L128 164H152C155.183 164 158.235 165.264 160.485 167.515C162.736 169.765 164 172.817 164 176C164 179.183 162.736 182.235 160.485 184.485C158.235 186.736 155.183 188 152 188H104C102.71 187.996 101.428 187.793 100.2 187.4C98.3839 186.78 96.7415 185.736 95.4083 184.355C94.0751 182.975 93.0893 181.297 92.5325 179.461C91.9757 177.624 91.8637 175.681 92.2058 173.793C92.5479 171.904 93.3343 170.125 94.5 168.6L138.1 110.5C139.329 108.554 139.987 106.302 140 104C140.033 101.208 139.092 98.4928 137.339 96.3204C135.585 94.1481 133.129 92.6551 130.393 92.0985C127.658 91.5419 124.814 91.9565 122.351 93.271C119.888 94.5854 117.96 96.7175 116.9 99.3C115.577 102.095 113.227 104.271 110.339 105.375C107.451 106.479 104.249 106.426 101.399 105.227C98.5492 104.028 96.2723 101.775 95.0429 98.9382C93.8135 96.1014 93.7265 92.8994 94.8 90C98.0179 82.3249 103.796 76.0017 111.15 72.1064C118.505 68.211 126.982 66.9841 135.139 68.6344C143.296 70.2847 150.629 74.7102 155.891 81.1581C161.153 87.6059 164.019 95.6776 164 104C164.037 111.176 161.873 118.191 157.8 124.1L157.5 124.6Z" fill="#9747FF"/>
</svg>
