<svg width="216" height="216" viewBox="0 0 216 216" fill="none" xmlns="http://www.w3.org/2000/svg">
<path d="M108 0C86.6397 0 65.759 6.33409 47.9985 18.2013C30.238 30.0685 16.3953 46.9358 8.22106 66.6702C0.0467949 86.4046 -2.09197 108.12 2.07524 129.07C6.24244 150.02 16.5284 169.263 31.6325 184.368C46.7366 199.472 65.9803 209.758 86.9303 213.925C107.88 218.092 129.595 215.953 149.33 207.779C169.064 199.605 185.932 185.762 197.799 168.002C209.666 150.241 216 129.36 216 108C215.974 79.3647 204.587 51.9099 184.338 31.6617C164.09 11.4135 136.635 0.0264774 108 0ZM108 192C91.3864 192 75.1459 187.073 61.3321 177.843C47.5184 168.613 36.7519 155.494 30.3942 140.145C24.0364 124.796 22.3729 107.907 25.6141 91.6124C28.8552 75.318 36.8555 60.3506 48.6031 48.603C60.3507 36.8554 75.3181 28.8552 91.6125 25.614C107.907 22.3729 124.796 24.0364 140.145 30.3941C155.494 36.7519 168.613 47.5184 177.843 61.3321C187.074 75.1458 192 91.3864 192 108C191.974 130.27 183.115 151.62 167.368 167.368C151.62 183.115 130.27 191.974 108 192ZM132.3 103.7C139.806 111.206 144.022 121.385 144.022 132C144.022 142.615 139.806 152.794 132.3 160.3C124.794 167.806 114.615 172.022 104 172.022C93.3855 172.022 83.2057 167.806 75.7 160.3C74.5838 159.184 73.6984 157.859 73.0943 156.4C72.4902 154.942 72.1792 153.379 72.1792 151.8C72.1792 148.612 73.4457 145.554 75.7 143.3C77.9544 141.046 81.0119 139.779 84.2 139.779C87.3882 139.779 90.4457 141.046 92.7 143.3C94.5597 145.164 96.8508 146.541 99.3699 147.307C101.889 148.074 104.559 148.207 107.141 147.694C109.724 147.182 112.141 146.04 114.176 144.369C116.212 142.699 117.804 140.552 118.811 138.119C119.818 135.686 120.209 133.042 119.949 130.422C119.69 127.802 118.787 125.286 117.322 123.098C115.857 120.91 113.875 119.117 111.551 117.879C109.227 116.641 106.633 115.995 104 116C101.805 115.997 99.6519 115.391 97.7767 114.249C95.9015 113.107 94.3755 111.473 93.3648 109.524C92.3542 107.575 91.8976 105.386 92.0449 103.195C92.1922 101.005 92.9376 98.8963 94.2 97.1L109 76H84C80.8174 76 77.7652 74.7357 75.5148 72.4853C73.2643 70.2348 72 67.1826 72 64C72 60.8174 73.2643 57.7652 75.5148 55.5147C77.7652 53.2643 80.8174 52 84 52H132C134.196 52.0033 136.348 52.6088 138.223 53.7507C140.099 54.8926 141.625 56.5271 142.635 58.4762C143.646 60.4253 144.102 62.6143 143.955 64.8049C143.808 66.9955 143.062 69.1037 141.8 70.9L123.5 97.1C126.725 98.881 129.687 101.102 132.3 103.7Z" fill="#9747FF"/>
</svg>
