<svg width="216" height="216" viewBox="0 0 216 216" fill="none" xmlns="http://www.w3.org/2000/svg">
<path d="M108 0C86.6397 0 65.759 6.33409 47.9985 18.2013C30.238 30.0685 16.3953 46.9358 8.22106 66.6702C0.0467949 86.4046 -2.09197 108.12 2.07524 129.07C6.24244 150.02 16.5284 169.263 31.6325 184.368C46.7366 199.472 65.9803 209.758 86.9303 213.925C107.88 218.092 129.595 215.953 149.33 207.779C169.064 199.605 185.932 185.762 197.799 168.002C209.666 150.241 216 129.36 216 108C215.974 79.3647 204.587 51.9099 184.338 31.6617C164.09 11.4135 136.635 0.0264774 108 0ZM108 192C91.3864 192 75.1459 187.073 61.3321 177.843C47.5184 168.613 36.7519 155.494 30.3942 140.145C24.0364 124.796 22.3729 107.907 25.6141 91.6124C28.8552 75.318 36.8555 60.3506 48.6031 48.603C60.3507 36.8554 75.3181 28.8552 91.6125 25.614C107.907 22.3729 124.796 24.0364 140.145 30.3941C155.494 36.7519 168.613 47.5184 177.843 61.3321C187.074 75.1458 192 91.3864 192 108C191.974 130.27 183.115 151.62 167.368 167.368C151.62 183.115 130.27 191.974 108 192ZM140 92V156C140 159.183 138.736 162.235 136.485 164.485C134.235 166.736 131.183 168 128 168C124.817 168 121.765 166.736 119.515 164.485C117.264 162.235 116 159.183 116 156V136H80C78.0814 135.998 76.1913 135.536 74.4882 134.652C72.7851 133.769 71.3187 132.49 70.2118 130.923C69.105 129.355 68.3901 127.546 68.1271 125.645C67.864 123.745 68.0605 121.809 68.7 120L92.7 52C93.17 50.4468 93.9501 49.005 94.9931 47.7619C96.0362 46.5188 97.3205 45.5002 98.7685 44.7676C100.216 44.035 101.798 43.6037 103.417 43.4998C105.037 43.3958 106.66 43.6215 108.19 44.163C109.72 44.7045 111.124 45.5506 112.317 46.6502C113.511 47.7498 114.469 49.08 115.133 50.5604C115.798 52.0408 116.155 53.6406 116.184 55.2631C116.213 56.8856 115.912 58.497 115.3 60L97 112H116V92C116 88.8174 117.264 85.7652 119.515 83.5147C121.765 81.2643 124.817 80 128 80C131.183 80 134.235 81.2643 136.485 83.5147C138.736 85.7652 140 88.8174 140 92Z" fill="#9747FF"/>
</svg>
