<svg width="216" height="216" viewBox="0 0 216 216" fill="none" xmlns="http://www.w3.org/2000/svg">
<path d="M108 0C86.6397 0 65.759 6.33409 47.9985 18.2013C30.238 30.0685 16.3953 46.9358 8.22106 66.6702C0.0467949 86.4046 -2.09197 108.12 2.07524 129.07C6.24244 150.02 16.5284 169.263 31.6325 184.368C46.7366 199.472 65.9803 209.758 86.9303 213.925C107.88 218.092 129.595 215.953 149.33 207.779C169.064 199.605 185.932 185.762 197.799 168.002C209.666 150.241 216 129.36 216 108C215.974 79.3647 204.587 51.9099 184.338 31.6617C164.09 11.4135 136.635 0.0264774 108 0ZM108 192C91.3864 192 75.1459 187.073 61.3321 177.843C47.5184 168.613 36.7519 155.494 30.3942 140.145C24.0364 124.796 22.3729 107.907 25.6141 91.6124C28.8552 75.318 36.8555 60.3506 48.6031 48.603C60.3507 36.8554 75.3181 28.8552 91.6125 25.614C107.907 22.3729 124.796 24.0364 140.145 30.3941C155.494 36.7519 168.613 47.5184 177.843 61.3321C187.074 75.1458 192 91.3864 192 108C191.974 130.27 183.115 151.62 167.368 167.368C151.62 183.115 130.27 191.974 108 192ZM102 76L99.4 92.2L103.9 92C114.509 92 124.683 96.2143 132.184 103.716C139.686 111.217 143.9 121.391 143.9 132C143.9 142.609 139.686 152.783 132.184 160.284C124.683 167.786 114.509 172 103.9 172C93.2601 172.002 83.051 167.796 75.5 160.3C73.2457 158.046 71.9792 154.988 71.9792 151.8C71.9792 148.612 73.2457 145.554 75.5 143.3C77.7544 141.046 80.8119 139.779 84 139.779C87.1882 139.779 90.2457 141.046 92.5 143.3C95.5335 146.305 99.6305 147.99 103.9 147.99C108.17 147.99 112.267 146.305 115.3 143.3C116.794 141.822 117.979 140.062 118.789 138.122C119.598 136.182 120.014 134.102 120.014 132C120.014 129.898 119.598 127.818 118.789 125.878C117.979 123.938 116.794 122.178 115.3 120.7C112.267 117.695 108.17 116.01 103.9 116.01C99.6305 116.01 95.5335 117.695 92.5 120.7C90.7034 122.481 88.39 123.648 85.8902 124.036C83.3904 124.423 80.8321 124.011 78.5808 122.857C76.3294 121.704 74.5001 119.869 73.3541 117.613C72.2082 115.358 71.8043 112.798 72.2 110.3L80 62.1C80.4505 59.291 81.8842 56.7333 84.0456 54.8834C86.2069 53.0334 88.9552 52.0115 91.8 52H132C135.183 52 138.235 53.2643 140.485 55.5147C142.736 57.7652 144 60.8174 144 64C144 67.1826 142.736 70.2348 140.485 72.4853C138.235 74.7357 135.183 76 132 76H102Z" fill="#9747FF"/>
</svg>
